<svg id="Layer_1" data-name="Layer 1" xmlns="http://www.w3.org/2000/svg" viewBox="0 0 511.068 512.93">
<title>gitlab</title><path fill="#fff" d="M511.034,256.1c0,24.089-.361,48.185.158,72.263,0.247,11.437-3.5,19.558-13.1,25.965Q384.155,430.392,270.51,506.9c-9.974,6.7-19.461,6.882-29.605.067Q126.719,430.253,12.347,353.823C4.464,348.546.248,341.27,0.233,331.764Q0.114,255.484.158,179.2c0.01-9.441,4.137-16.518,12.2-21.9Q126.751,80.9,240.921,4.148c9.96-6.686,19.44-6.845,29.575-.034Q384.678,80.846,499.054,157.286c8.271,5.536,12.163,12.909,12.029,23.109-0.334,25.231-.11,50.47-0.11,75.705h0.062ZM277.86,62.262c0,34.37-.089,66.042.167,97.71a10.5,10.5,0,0,0,3.8,7.5c30.1,20.562,60.4,40.839,90.953,61.388l76.587-51.627Zm-0.007,386.373,171.6-114.948c-25.152-16.955-48.336-32.781-71.835-48.118-2.354-1.536-7.481-1.415-9.879.159q-42.867,28.128-85.153,57.142a11.675,11.675,0,0,0-4.531,8.158C277.738,382.683,277.854,414.342,277.854,448.635ZM233.6,62.223L61.9,177.295c25.032,16.806,48.252,32.64,71.851,47.88,2.52,1.627,8.119,1.117,10.832-.656q41.553-27.144,82.471-55.261c2.994-2.054,6.215-6.417,6.265-9.756C233.791,128.226,233.6,96.94,233.6,62.223ZM62,333.72L233.622,448.734c0-34.444.163-66.447-.281-98.441-0.039-2.843-3.494-6.409-6.264-8.32-20.992-14.486-42.244-28.591-63.347-42.915-24.778-16.819-24.776-16.9-49.771-.255C96.963,310.124,80.055,321.58,62,333.72Zm116.3-78.309c23.093,15.6,45.005,29.887,66.292,45.059,7.853,5.6,13.5,6.831,21.7.3,11.579-9.218,24.486-16.747,36.793-25.047,9.6-6.476,19.155-13.025,29.892-20.333-25.167-16.959-48.722-32.95-72.477-48.634-2.09-1.38-6.335-2.053-8.157-.86C227.933,221.892,203.779,238.274,178.3,255.411ZM466.86,292.022v-73.19l-54.452,36.647ZM98.956,255.44L45.614,219.745v71.7Z" transform="translate(-0.135 0.93)"/></svg>