<svg id="Layer_1" data-name="Layer 1" xmlns="http://www.w3.org/2000/svg" viewBox="0 0 511.158 468.589">
<title>gitlab</title><path fill="#fff" d="M114.179,20.705c3.032,4.691,7.214,9,8.917,14.131,16.987,51.183,33.788,102.432,50.041,153.852,2.745,8.683,6.42,11.885,15.736,11.784q67.953-.738,135.918-0.014c8.192,0.079,11.168-3,13.474-10.276,15.851-50.028,32.128-99.922,48.269-149.858,0.779-2.411.942-5.379,2.486-7.113,3.554-3.991,7.79-10.227,11.736-10.217,3.972,0.01,9.87,5.726,11.6,10.22,20.755,54.065,40.875,108.374,61.2,162.606,12.065,32.2,23.983,64.457,36.424,96.511,3.5,9.01,1.544,14.762-6.169,20.345Q385.367,398.4,267.3,484.639c-8.486,6.205-14.988,5.819-23.277-.246Q126.9,398.7,9.316,313.648c-8.873-6.412-10.838-12.44-6.887-22.851,32.359-85.28,64.124-170.785,96.405-256.1,2-5.272,6.824-9.472,10.335-14.17Zm108.1,397.843,1.449-.82c-0.918-3.418-1.687-6.885-2.776-10.248q-25.1-77.473-50.317-154.91c-3.124-9.572-4.07-22.841-10.788-27.448-7.294-5-20.152-2.142-30.589-2.244-19.754-.194-39.511-0.056-61.758-0.056ZM443.133,224.315c-2.188-.748-3.12-1.342-4.054-1.345-27.171-.082-54.347.165-81.511-0.318-7.257-.129-8.085,4.339-9.654,9.166q-20.807,63.994-41.649,127.976c-6.275,19.348-12.375,38.754-18.554,58.133l1.686,0.742Zm20.892,9.641L320.177,415.928c8.513-3.745,15.506-8.834,22.5-13.919,45.993-33.431,92.041-66.788,137.842-100.481,2.684-1.974,5.515-7.384,4.646-9.975C478.846,272.722,471.593,254.206,464.025,233.957Zm-416.253.114c-7.039,18.775-13.211,36.41-20.327,53.656-2.983,7.23-1.055,10.746,4.887,15.029,50.531,36.429,100.817,73.2,151.2,109.829,2.3,1.67,4.82,3.029,7.237,4.533l0.831-1.336Z" transform="translate(-0.486 -20.532)"/></svg>