<svg xmlns="http://www.w3.org/2000/svg" viewBox="0 0 486.406 486.406"><path d="M481.198 224.116L253.202 26.52a15.194 15.194 0 0 0-19.912 0l-81.288 70.405V68.41c0-16.781-13.619-30.399-30.399-30.399s-30.4 13.619-30.4 30.399v81.197l-85.97 74.509c-6.323 5.502-7.022 15.109-1.52 21.462 5.533 6.323 15.109 6.992 21.462 1.52L243.201 58.135l217.995 188.963c2.918 2.493 6.414 3.709 9.971 3.709 4.286 0 8.451-1.794 11.461-5.229 5.592-6.353 4.863-15.899-1.43-21.462z"/><path d="M262.443 136.14a30.236 30.236 0 0 0-19.243-6.931 30.2 30.2 0 0 0-19.273 6.931L71.93 260.747a30.347 30.347 0 0 0-11.126 23.529v148.927c0 16.781 13.619 30.399 30.399 30.399h91.198V311.606h121.598v151.997h91.198c16.75 0 30.399-13.619 30.399-30.399V284.277a30.224 30.224 0 0 0-11.157-23.499L262.443 136.14z"/></svg>